%TF.GenerationSoftware,KiCad,Pcbnew,(6.0.5-0)*%
%TF.CreationDate,2022-05-19T17:28:55-04:00*%
%TF.ProjectId,test_project,74657374-5f70-4726-9f6a-6563742e6b69,rev?*%
%TF.SameCoordinates,Original*%
%TF.FileFunction,Legend,Top*%
%TF.FilePolarity,Positive*%
%FSLAX46Y46*%
G04 Gerber Fmt 4.6, Leading zero omitted, Abs format (unit mm)*
G04 Created by KiCad (PCBNEW (6.0.5-0)) date 2022-05-19 17:28:55*
%MOMM*%
%LPD*%
G01*
G04 APERTURE LIST*
%ADD10C,0.150000*%
%ADD11C,0.187500*%
%ADD12C,0.300000*%
%ADD13C,0.120000*%
%ADD14C,0.050000*%
G04 APERTURE END LIST*
D10*
X120658095Y-112736380D02*
X120658095Y-113545904D01*
X120705714Y-113641142D01*
X120753333Y-113688761D01*
X120848571Y-113736380D01*
X121039047Y-113736380D01*
X121134285Y-113688761D01*
X121181904Y-113641142D01*
X121229523Y-113545904D01*
X121229523Y-112736380D01*
X121658095Y-113688761D02*
X121800952Y-113736380D01*
X122039047Y-113736380D01*
X122134285Y-113688761D01*
X122181904Y-113641142D01*
X122229523Y-113545904D01*
X122229523Y-113450666D01*
X122181904Y-113355428D01*
X122134285Y-113307809D01*
X122039047Y-113260190D01*
X121848571Y-113212571D01*
X121753333Y-113164952D01*
X121705714Y-113117333D01*
X121658095Y-113022095D01*
X121658095Y-112926857D01*
X121705714Y-112831619D01*
X121753333Y-112784000D01*
X121848571Y-112736380D01*
X122086666Y-112736380D01*
X122229523Y-112784000D01*
X122991428Y-113212571D02*
X123134285Y-113260190D01*
X123181904Y-113307809D01*
X123229523Y-113403047D01*
X123229523Y-113545904D01*
X123181904Y-113641142D01*
X123134285Y-113688761D01*
X123039047Y-113736380D01*
X122658095Y-113736380D01*
X122658095Y-112736380D01*
X122991428Y-112736380D01*
X123086666Y-112784000D01*
X123134285Y-112831619D01*
X123181904Y-112926857D01*
X123181904Y-113022095D01*
X123134285Y-113117333D01*
X123086666Y-113164952D01*
X122991428Y-113212571D01*
X122658095Y-113212571D01*
X126894000Y-111550000D02*
X126894000Y-114400000D01*
X117100000Y-111550000D02*
X126700000Y-111550000D01*
X116894000Y-111550000D02*
X116894000Y-114400000D01*
D11*
X131254571Y-75063000D02*
X131183142Y-75027285D01*
X131076000Y-75027285D01*
X130968857Y-75063000D01*
X130897428Y-75134428D01*
X130861714Y-75205857D01*
X130826000Y-75348714D01*
X130826000Y-75455857D01*
X130861714Y-75598714D01*
X130897428Y-75670142D01*
X130968857Y-75741571D01*
X131076000Y-75777285D01*
X131147428Y-75777285D01*
X131254571Y-75741571D01*
X131290285Y-75705857D01*
X131290285Y-75455857D01*
X131147428Y-75455857D01*
X131611714Y-75777285D02*
X131611714Y-75027285D01*
X132040285Y-75777285D01*
X132040285Y-75027285D01*
X132397428Y-75777285D02*
X132397428Y-75027285D01*
X132576000Y-75027285D01*
X132683142Y-75063000D01*
X132754571Y-75134428D01*
X132790285Y-75205857D01*
X132826000Y-75348714D01*
X132826000Y-75455857D01*
X132790285Y-75598714D01*
X132754571Y-75670142D01*
X132683142Y-75741571D01*
X132576000Y-75777285D01*
X132397428Y-75777285D01*
X131258571Y-72487285D02*
X131508571Y-73237285D01*
X131758571Y-72487285D01*
X132008571Y-73237285D02*
X132008571Y-72487285D01*
X132365714Y-73237285D02*
X132365714Y-72487285D01*
X132794285Y-73237285D01*
X132794285Y-72487285D01*
X118723285Y-141527571D02*
X118830428Y-141563285D01*
X119009000Y-141563285D01*
X119080428Y-141527571D01*
X119116142Y-141491857D01*
X119151857Y-141420428D01*
X119151857Y-141349000D01*
X119116142Y-141277571D01*
X119080428Y-141241857D01*
X119009000Y-141206142D01*
X118866142Y-141170428D01*
X118794714Y-141134714D01*
X118759000Y-141099000D01*
X118723285Y-141027571D01*
X118723285Y-140956142D01*
X118759000Y-140884714D01*
X118794714Y-140849000D01*
X118866142Y-140813285D01*
X119044714Y-140813285D01*
X119151857Y-140849000D01*
X119473285Y-141563285D02*
X119473285Y-140813285D01*
X119651857Y-140813285D01*
X119759000Y-140849000D01*
X119830428Y-140920428D01*
X119866142Y-140991857D01*
X119901857Y-141134714D01*
X119901857Y-141241857D01*
X119866142Y-141384714D01*
X119830428Y-141456142D01*
X119759000Y-141527571D01*
X119651857Y-141563285D01*
X119473285Y-141563285D01*
X120187571Y-141349000D02*
X120544714Y-141349000D01*
X120116142Y-141563285D02*
X120366142Y-140813285D01*
X120616142Y-141563285D01*
X121281142Y-141527571D02*
X121388285Y-141563285D01*
X121566857Y-141563285D01*
X121638285Y-141527571D01*
X121674000Y-141491857D01*
X121709714Y-141420428D01*
X121709714Y-141349000D01*
X121674000Y-141277571D01*
X121638285Y-141241857D01*
X121566857Y-141206142D01*
X121424000Y-141170428D01*
X121352571Y-141134714D01*
X121316857Y-141099000D01*
X121281142Y-141027571D01*
X121281142Y-140956142D01*
X121316857Y-140884714D01*
X121352571Y-140849000D01*
X121424000Y-140813285D01*
X121602571Y-140813285D01*
X121709714Y-140849000D01*
X122459714Y-141491857D02*
X122424000Y-141527571D01*
X122316857Y-141563285D01*
X122245428Y-141563285D01*
X122138285Y-141527571D01*
X122066857Y-141456142D01*
X122031142Y-141384714D01*
X121995428Y-141241857D01*
X121995428Y-141134714D01*
X122031142Y-140991857D01*
X122066857Y-140920428D01*
X122138285Y-140849000D01*
X122245428Y-140813285D01*
X122316857Y-140813285D01*
X122424000Y-140849000D01*
X122459714Y-140884714D01*
X123138285Y-141563285D02*
X122781142Y-141563285D01*
X122781142Y-140813285D01*
X123860857Y-140813285D02*
X124325142Y-140813285D01*
X124075142Y-141099000D01*
X124182285Y-141099000D01*
X124253714Y-141134714D01*
X124289428Y-141170428D01*
X124325142Y-141241857D01*
X124325142Y-141420428D01*
X124289428Y-141491857D01*
X124253714Y-141527571D01*
X124182285Y-141563285D01*
X123968000Y-141563285D01*
X123896571Y-141527571D01*
X123860857Y-141491857D01*
X124646571Y-141491857D02*
X124682285Y-141527571D01*
X124646571Y-141563285D01*
X124610857Y-141527571D01*
X124646571Y-141491857D01*
X124646571Y-141563285D01*
X124932285Y-140813285D02*
X125396571Y-140813285D01*
X125146571Y-141099000D01*
X125253714Y-141099000D01*
X125325142Y-141134714D01*
X125360857Y-141170428D01*
X125396571Y-141241857D01*
X125396571Y-141420428D01*
X125360857Y-141491857D01*
X125325142Y-141527571D01*
X125253714Y-141563285D01*
X125039428Y-141563285D01*
X124968000Y-141527571D01*
X124932285Y-141491857D01*
X125610857Y-140813285D02*
X125860857Y-141563285D01*
X126110857Y-140813285D01*
X126936571Y-140849000D02*
X126865142Y-140813285D01*
X126758000Y-140813285D01*
X126650857Y-140849000D01*
X126579428Y-140920428D01*
X126543714Y-140991857D01*
X126508000Y-141134714D01*
X126508000Y-141241857D01*
X126543714Y-141384714D01*
X126579428Y-141456142D01*
X126650857Y-141527571D01*
X126758000Y-141563285D01*
X126829428Y-141563285D01*
X126936571Y-141527571D01*
X126972285Y-141491857D01*
X126972285Y-141241857D01*
X126829428Y-141241857D01*
X127293714Y-141563285D02*
X127293714Y-140813285D01*
X127722285Y-141563285D01*
X127722285Y-140813285D01*
X128079428Y-141563285D02*
X128079428Y-140813285D01*
X128258000Y-140813285D01*
X128365142Y-140849000D01*
X128436571Y-140920428D01*
X128472285Y-140991857D01*
X128508000Y-141134714D01*
X128508000Y-141241857D01*
X128472285Y-141384714D01*
X128436571Y-141456142D01*
X128365142Y-141527571D01*
X128258000Y-141563285D01*
X128079428Y-141563285D01*
D12*
X145601428Y-117630857D02*
X145601428Y-118488000D01*
X144101428Y-118059428D02*
X145601428Y-118059428D01*
X144101428Y-118988000D02*
X145101428Y-118988000D01*
X145601428Y-118988000D02*
X145530000Y-118916571D01*
X145458571Y-118988000D01*
X145530000Y-119059428D01*
X145601428Y-118988000D01*
X145458571Y-118988000D01*
X145101428Y-119702285D02*
X144101428Y-119702285D01*
X144958571Y-119702285D02*
X145030000Y-119773714D01*
X145101428Y-119916571D01*
X145101428Y-120130857D01*
X145030000Y-120273714D01*
X144887142Y-120345142D01*
X144101428Y-120345142D01*
X145101428Y-120916571D02*
X144101428Y-121273714D01*
X145101428Y-121630857D02*
X144101428Y-121273714D01*
X143744285Y-121130857D01*
X143672857Y-121059428D01*
X143601428Y-120916571D01*
X145530000Y-122988000D02*
X145601428Y-122845142D01*
X145601428Y-122630857D01*
X145530000Y-122416571D01*
X145387142Y-122273714D01*
X145244285Y-122202285D01*
X144958571Y-122130857D01*
X144744285Y-122130857D01*
X144458571Y-122202285D01*
X144315714Y-122273714D01*
X144172857Y-122416571D01*
X144101428Y-122630857D01*
X144101428Y-122773714D01*
X144172857Y-122988000D01*
X144244285Y-123059428D01*
X144744285Y-123059428D01*
X144744285Y-122773714D01*
X144172857Y-123630857D02*
X144101428Y-123845142D01*
X144101428Y-124202285D01*
X144172857Y-124345142D01*
X144244285Y-124416571D01*
X144387142Y-124488000D01*
X144530000Y-124488000D01*
X144672857Y-124416571D01*
X144744285Y-124345142D01*
X144815714Y-124202285D01*
X144887142Y-123916571D01*
X144958571Y-123773714D01*
X145030000Y-123702285D01*
X145172857Y-123630857D01*
X145315714Y-123630857D01*
X145458571Y-123702285D01*
X145530000Y-123773714D01*
X145601428Y-123916571D01*
X145601428Y-124273714D01*
X145530000Y-124488000D01*
X144172857Y-126202285D02*
X144101428Y-126416571D01*
X144101428Y-126773714D01*
X144172857Y-126916571D01*
X144244285Y-126988000D01*
X144387142Y-127059428D01*
X144530000Y-127059428D01*
X144672857Y-126988000D01*
X144744285Y-126916571D01*
X144815714Y-126773714D01*
X144887142Y-126488000D01*
X144958571Y-126345142D01*
X145030000Y-126273714D01*
X145172857Y-126202285D01*
X145315714Y-126202285D01*
X145458571Y-126273714D01*
X145530000Y-126345142D01*
X145601428Y-126488000D01*
X145601428Y-126845142D01*
X145530000Y-127059428D01*
X145101428Y-127488000D02*
X145101428Y-128059428D01*
X145601428Y-127702285D02*
X144315714Y-127702285D01*
X144172857Y-127773714D01*
X144101428Y-127916571D01*
X144101428Y-128059428D01*
X144101428Y-129202285D02*
X144887142Y-129202285D01*
X145030000Y-129130857D01*
X145101428Y-128988000D01*
X145101428Y-128702285D01*
X145030000Y-128559428D01*
X144172857Y-129202285D02*
X144101428Y-129059428D01*
X144101428Y-128702285D01*
X144172857Y-128559428D01*
X144315714Y-128488000D01*
X144458571Y-128488000D01*
X144601428Y-128559428D01*
X144672857Y-128702285D01*
X144672857Y-129059428D01*
X144744285Y-129202285D01*
X145101428Y-129702285D02*
X145101428Y-130273714D01*
X145601428Y-129916571D02*
X144315714Y-129916571D01*
X144172857Y-129988000D01*
X144101428Y-130130857D01*
X144101428Y-130273714D01*
X144101428Y-130773714D02*
X145101428Y-130773714D01*
X145601428Y-130773714D02*
X145530000Y-130702285D01*
X145458571Y-130773714D01*
X145530000Y-130845142D01*
X145601428Y-130773714D01*
X145458571Y-130773714D01*
X144101428Y-131702285D02*
X144172857Y-131559428D01*
X144244285Y-131488000D01*
X144387142Y-131416571D01*
X144815714Y-131416571D01*
X144958571Y-131488000D01*
X145030000Y-131559428D01*
X145101428Y-131702285D01*
X145101428Y-131916571D01*
X145030000Y-132059428D01*
X144958571Y-132130857D01*
X144815714Y-132202285D01*
X144387142Y-132202285D01*
X144244285Y-132130857D01*
X144172857Y-132059428D01*
X144101428Y-131916571D01*
X144101428Y-131702285D01*
X145101428Y-132845142D02*
X144101428Y-132845142D01*
X144958571Y-132845142D02*
X145030000Y-132916571D01*
X145101428Y-133059428D01*
X145101428Y-133273714D01*
X145030000Y-133416571D01*
X144887142Y-133488000D01*
X144101428Y-133488000D01*
X145859428Y-64115142D02*
X144716571Y-64115142D01*
X145288000Y-64686571D02*
X145288000Y-63543714D01*
X145395142Y-74358571D02*
X145395142Y-75501428D01*
D10*
%TO.C,U2*%
X105481428Y-41632761D02*
X105481428Y-41966095D01*
X104957619Y-42108952D02*
X104957619Y-41632761D01*
X105957619Y-41632761D01*
X105957619Y-42108952D01*
X105957619Y-42442285D02*
X105957619Y-43061333D01*
X105576666Y-42728000D01*
X105576666Y-42870857D01*
X105529047Y-42966095D01*
X105481428Y-43013714D01*
X105386190Y-43061333D01*
X105148095Y-43061333D01*
X105052857Y-43013714D01*
X105005238Y-42966095D01*
X104957619Y-42870857D01*
X104957619Y-42585142D01*
X105005238Y-42489904D01*
X105052857Y-42442285D01*
X105862380Y-43442285D02*
X105910000Y-43489904D01*
X105957619Y-43585142D01*
X105957619Y-43823238D01*
X105910000Y-43918476D01*
X105862380Y-43966095D01*
X105767142Y-44013714D01*
X105671904Y-44013714D01*
X105529047Y-43966095D01*
X104957619Y-43394666D01*
X104957619Y-44013714D01*
X105624285Y-44870857D02*
X104957619Y-44870857D01*
X106005238Y-44632761D02*
X105290952Y-44394666D01*
X105290952Y-45013714D01*
X105957619Y-45585142D02*
X105957619Y-45680380D01*
X105910000Y-45775619D01*
X105862380Y-45823238D01*
X105767142Y-45870857D01*
X105576666Y-45918476D01*
X105338571Y-45918476D01*
X105148095Y-45870857D01*
X105052857Y-45823238D01*
X105005238Y-45775619D01*
X104957619Y-45680380D01*
X104957619Y-45585142D01*
X105005238Y-45489904D01*
X105052857Y-45442285D01*
X105148095Y-45394666D01*
X105338571Y-45347047D01*
X105576666Y-45347047D01*
X105767142Y-45394666D01*
X105862380Y-45442285D01*
X105910000Y-45489904D01*
X105957619Y-45585142D01*
X105957619Y-46537523D02*
X105957619Y-46632761D01*
X105910000Y-46728000D01*
X105862380Y-46775619D01*
X105767142Y-46823238D01*
X105576666Y-46870857D01*
X105338571Y-46870857D01*
X105148095Y-46823238D01*
X105052857Y-46775619D01*
X105005238Y-46728000D01*
X104957619Y-46632761D01*
X104957619Y-46537523D01*
X105005238Y-46442285D01*
X105052857Y-46394666D01*
X105148095Y-46347047D01*
X105338571Y-46299428D01*
X105576666Y-46299428D01*
X105767142Y-46347047D01*
X105862380Y-46394666D01*
X105910000Y-46442285D01*
X105957619Y-46537523D01*
X104957619Y-47299428D02*
X105957619Y-47299428D01*
X105243333Y-47632761D01*
X105957619Y-47966095D01*
X104957619Y-47966095D01*
X105957619Y-48347047D02*
X105957619Y-48966095D01*
X105576666Y-48632761D01*
X105576666Y-48775619D01*
X105529047Y-48870857D01*
X105481428Y-48918476D01*
X105386190Y-48966095D01*
X105148095Y-48966095D01*
X105052857Y-48918476D01*
X105005238Y-48870857D01*
X104957619Y-48775619D01*
X104957619Y-48489904D01*
X105005238Y-48394666D01*
X105052857Y-48347047D01*
X105957619Y-49585142D02*
X105957619Y-49680380D01*
X105910000Y-49775619D01*
X105862380Y-49823238D01*
X105767142Y-49870857D01*
X105576666Y-49918476D01*
X105338571Y-49918476D01*
X105148095Y-49870857D01*
X105052857Y-49823238D01*
X105005238Y-49775619D01*
X104957619Y-49680380D01*
X104957619Y-49585142D01*
X105005238Y-49489904D01*
X105052857Y-49442285D01*
X105148095Y-49394666D01*
X105338571Y-49347047D01*
X105576666Y-49347047D01*
X105767142Y-49394666D01*
X105862380Y-49442285D01*
X105910000Y-49489904D01*
X105957619Y-49585142D01*
X105005238Y-50299428D02*
X104957619Y-50442285D01*
X104957619Y-50680380D01*
X105005238Y-50775619D01*
X105052857Y-50823238D01*
X105148095Y-50870857D01*
X105243333Y-50870857D01*
X105338571Y-50823238D01*
X105386190Y-50775619D01*
X105433809Y-50680380D01*
X105481428Y-50489904D01*
X105529047Y-50394666D01*
X105576666Y-50347047D01*
X105671904Y-50299428D01*
X105767142Y-50299428D01*
X105862380Y-50347047D01*
X105910000Y-50394666D01*
X105957619Y-50489904D01*
X105957619Y-50728000D01*
X105910000Y-50870857D01*
%TO.C,R2*%
X142522380Y-81446666D02*
X142046190Y-81780000D01*
X142522380Y-82018095D02*
X141522380Y-82018095D01*
X141522380Y-81637142D01*
X141570000Y-81541904D01*
X141617619Y-81494285D01*
X141712857Y-81446666D01*
X141855714Y-81446666D01*
X141950952Y-81494285D01*
X141998571Y-81541904D01*
X142046190Y-81637142D01*
X142046190Y-82018095D01*
X141617619Y-81065714D02*
X141570000Y-81018095D01*
X141522380Y-80922857D01*
X141522380Y-80684761D01*
X141570000Y-80589523D01*
X141617619Y-80541904D01*
X141712857Y-80494285D01*
X141808095Y-80494285D01*
X141950952Y-80541904D01*
X142522380Y-81113333D01*
X142522380Y-80494285D01*
%TO.C,U1*%
X136541142Y-112450571D02*
X136874476Y-112450571D01*
X137017333Y-112974380D02*
X136541142Y-112974380D01*
X136541142Y-111974380D01*
X137017333Y-111974380D01*
X137398285Y-112926761D02*
X137541142Y-112974380D01*
X137779238Y-112974380D01*
X137874476Y-112926761D01*
X137922095Y-112879142D01*
X137969714Y-112783904D01*
X137969714Y-112688666D01*
X137922095Y-112593428D01*
X137874476Y-112545809D01*
X137779238Y-112498190D01*
X137588761Y-112450571D01*
X137493523Y-112402952D01*
X137445904Y-112355333D01*
X137398285Y-112260095D01*
X137398285Y-112164857D01*
X137445904Y-112069619D01*
X137493523Y-112022000D01*
X137588761Y-111974380D01*
X137826857Y-111974380D01*
X137969714Y-112022000D01*
X138398285Y-112974380D02*
X138398285Y-111974380D01*
X138779238Y-111974380D01*
X138874476Y-112022000D01*
X138922095Y-112069619D01*
X138969714Y-112164857D01*
X138969714Y-112307714D01*
X138922095Y-112402952D01*
X138874476Y-112450571D01*
X138779238Y-112498190D01*
X138398285Y-112498190D01*
X139303047Y-111974380D02*
X139922095Y-111974380D01*
X139588761Y-112355333D01*
X139731619Y-112355333D01*
X139826857Y-112402952D01*
X139874476Y-112450571D01*
X139922095Y-112545809D01*
X139922095Y-112783904D01*
X139874476Y-112879142D01*
X139826857Y-112926761D01*
X139731619Y-112974380D01*
X139445904Y-112974380D01*
X139350666Y-112926761D01*
X139303047Y-112879142D01*
X140303047Y-112069619D02*
X140350666Y-112022000D01*
X140445904Y-111974380D01*
X140684000Y-111974380D01*
X140779238Y-112022000D01*
X140826857Y-112069619D01*
X140874476Y-112164857D01*
X140874476Y-112260095D01*
X140826857Y-112402952D01*
X140255428Y-112974380D01*
X140874476Y-112974380D01*
%TO.C,R1*%
X142522380Y-96686666D02*
X142046190Y-97020000D01*
X142522380Y-97258095D02*
X141522380Y-97258095D01*
X141522380Y-96877142D01*
X141570000Y-96781904D01*
X141617619Y-96734285D01*
X141712857Y-96686666D01*
X141855714Y-96686666D01*
X141950952Y-96734285D01*
X141998571Y-96781904D01*
X142046190Y-96877142D01*
X142046190Y-97258095D01*
X142522380Y-95734285D02*
X142522380Y-96305714D01*
X142522380Y-96020000D02*
X141522380Y-96020000D01*
X141665238Y-96115238D01*
X141760476Y-96210476D01*
X141808095Y-96305714D01*
%TO.C,U3*%
X126055619Y-145756380D02*
X126246095Y-145756380D01*
X126341333Y-145804000D01*
X126436571Y-145899238D01*
X126484190Y-146089714D01*
X126484190Y-146423047D01*
X126436571Y-146613523D01*
X126341333Y-146708761D01*
X126246095Y-146756380D01*
X126055619Y-146756380D01*
X125960380Y-146708761D01*
X125865142Y-146613523D01*
X125817523Y-146423047D01*
X125817523Y-146089714D01*
X125865142Y-145899238D01*
X125960380Y-145804000D01*
X126055619Y-145756380D01*
X127388952Y-146756380D02*
X126912761Y-146756380D01*
X126912761Y-145756380D01*
X127722285Y-146232571D02*
X128055619Y-146232571D01*
X128198476Y-146756380D02*
X127722285Y-146756380D01*
X127722285Y-145756380D01*
X128198476Y-145756380D01*
X128627047Y-146756380D02*
X128627047Y-145756380D01*
X128865142Y-145756380D01*
X129008000Y-145804000D01*
X129103238Y-145899238D01*
X129150857Y-145994476D01*
X129198476Y-146184952D01*
X129198476Y-146327809D01*
X129150857Y-146518285D01*
X129103238Y-146613523D01*
X129008000Y-146708761D01*
X128865142Y-146756380D01*
X128627047Y-146756380D01*
%TO.C,J1*%
X137232380Y-69703333D02*
X137946666Y-69703333D01*
X138089523Y-69750952D01*
X138184761Y-69846190D01*
X138232380Y-69989047D01*
X138232380Y-70084285D01*
X138232380Y-68703333D02*
X138232380Y-69274761D01*
X138232380Y-68989047D02*
X137232380Y-68989047D01*
X137375238Y-69084285D01*
X137470476Y-69179523D01*
X137518095Y-69274761D01*
D13*
%TO.C,U2*%
X124155000Y-33720000D02*
X120755000Y-33720000D01*
X109325000Y-57720000D02*
X111265000Y-57720000D01*
X124155000Y-57720000D02*
X120755000Y-57720000D01*
X146155000Y-57720000D02*
X145155000Y-57720000D01*
X109325000Y-33720000D02*
X109325000Y-57720000D01*
X146155000Y-33720000D02*
X145155000Y-33720000D01*
X109325000Y-33720000D02*
X111265000Y-33720000D01*
X146155000Y-33720000D02*
X146155000Y-57720000D01*
%TO.C,R2*%
X138330000Y-78010000D02*
X138330000Y-84550000D01*
X139700000Y-77240000D02*
X139700000Y-78010000D01*
X141070000Y-78010000D02*
X138330000Y-78010000D01*
X141070000Y-84550000D02*
X141070000Y-78010000D01*
X139700000Y-85320000D02*
X139700000Y-84550000D01*
X138330000Y-84550000D02*
X141070000Y-84550000D01*
%TO.C,U1*%
X135837500Y-71602500D02*
X133177500Y-71602500D01*
X135837500Y-109822500D02*
X134507500Y-109822500D01*
X107777500Y-107222500D02*
X107777500Y-71602500D01*
X133177500Y-107222500D02*
X133177500Y-71602500D01*
X110437500Y-108492500D02*
X110437500Y-109822500D01*
X110437500Y-109822500D02*
X109107500Y-109822500D01*
X110437500Y-107222500D02*
X110437500Y-71602500D01*
X110437500Y-107222500D02*
X107777500Y-107222500D01*
X110437500Y-71602500D02*
X107777500Y-71602500D01*
X135837500Y-108492500D02*
X135837500Y-109822500D01*
X135837500Y-107222500D02*
X135837500Y-71602500D01*
X135837500Y-107222500D02*
X133177500Y-107222500D01*
D14*
X136057500Y-114512500D02*
X107557500Y-114512500D01*
X107557500Y-114512500D02*
X107557500Y-63062500D01*
X107557500Y-63062500D02*
X136057500Y-63062500D01*
X136057500Y-63062500D02*
X136057500Y-114512500D01*
D13*
%TO.C,R1*%
X138330000Y-93250000D02*
X138330000Y-99790000D01*
X141070000Y-93250000D02*
X138330000Y-93250000D01*
X138330000Y-99790000D02*
X141070000Y-99790000D01*
X141070000Y-99790000D02*
X141070000Y-93250000D01*
X139700000Y-92480000D02*
X139700000Y-93250000D01*
X139700000Y-100560000D02*
X139700000Y-99790000D01*
%TO.C,U3*%
X137160000Y-144780000D02*
X109860000Y-144780000D01*
X109860000Y-144780000D02*
X109860000Y-116980000D01*
X109860000Y-116980000D02*
X137160000Y-116980000D01*
X137160000Y-116980000D02*
X137160000Y-144780000D01*
%TO.C,J1*%
X144340000Y-73280000D02*
X144340000Y-65460000D01*
X138780000Y-73280000D02*
X145900000Y-73280000D01*
X144400000Y-73520000D02*
X146140000Y-73520000D01*
X138780000Y-65460000D02*
X145900000Y-65460000D01*
X138780000Y-73280000D02*
X138780000Y-65460000D01*
X145900000Y-73280000D02*
X145900000Y-65460000D01*
X146140000Y-73520000D02*
X146140000Y-72020000D01*
X141632000Y-72552000D02*
G75*
G03*
X142847742Y-72552109I608000J1432000D01*
G01*
X143795000Y-71120000D02*
G75*
G03*
X143671385Y-70512413I-1555000J0D01*
G01*
X142848000Y-69688000D02*
G75*
G03*
X141632258Y-69687891I-607999J-1432003D01*
G01*
X140808000Y-70512000D02*
G75*
G03*
X140807891Y-71727742I1432000J-608000D01*
G01*
X143672000Y-71728000D02*
G75*
G03*
X143795493Y-71092989I-1431988J607998D01*
G01*
X143795000Y-67620000D02*
G75*
G03*
X143795000Y-67620000I-1555000J0D01*
G01*
%TD*%
M02*
