%TF.GenerationSoftware,KiCad,Pcbnew,(6.0.5-0)*%
%TF.CreationDate,2022-05-19T17:28:55-04:00*%
%TF.ProjectId,test_project,74657374-5f70-4726-9f6a-6563742e6b69,rev?*%
%TF.SameCoordinates,Original*%
%TF.FileFunction,Copper,L2,Bot*%
%TF.FilePolarity,Positive*%
%FSLAX46Y46*%
G04 Gerber Fmt 4.6, Leading zero omitted, Abs format (unit mm)*
G04 Created by KiCad (PCBNEW (6.0.5-0)) date 2022-05-19 17:28:55*
%MOMM*%
%LPD*%
G01*
G04 APERTURE LIST*
%TA.AperFunction,ComponentPad*%
%ADD10C,1.600000*%
%TD*%
%TA.AperFunction,ComponentPad*%
%ADD11O,1.600000X1.600000*%
%TD*%
%TA.AperFunction,ComponentPad*%
%ADD12R,1.700000X1.700000*%
%TD*%
%TA.AperFunction,ComponentPad*%
%ADD13O,1.700000X1.700000*%
%TD*%
%TA.AperFunction,ComponentPad*%
%ADD14C,1.700000*%
%TD*%
%TA.AperFunction,ComponentPad*%
%ADD15R,2.400000X2.400000*%
%TD*%
%TA.AperFunction,ComponentPad*%
%ADD16C,2.400000*%
%TD*%
%TA.AperFunction,ViaPad*%
%ADD17C,0.800000*%
%TD*%
%TA.AperFunction,Conductor*%
%ADD18C,0.500000*%
%TD*%
%TA.AperFunction,Conductor*%
%ADD19C,0.250000*%
%TD*%
G04 APERTURE END LIST*
D10*
%TO.P,R2,1*%
%TO.N,Net-(R2-Pad1)*%
X139700000Y-76200000D03*
D11*
%TO.P,R2,2*%
%TO.N,Net-(R2-Pad2)*%
X139700000Y-86360000D03*
%TD*%
D12*
%TO.P,U1,1,EN*%
%TO.N,unconnected-(U1-Pad1)*%
X134507500Y-108492500D03*
D13*
%TO.P,U1,2,VP*%
%TO.N,unconnected-(U1-Pad2)*%
X134507500Y-105952500D03*
%TO.P,U1,3,VN*%
%TO.N,unconnected-(U1-Pad3)*%
X134507500Y-103412500D03*
%TO.P,U1,4,GPIO34*%
%TO.N,unconnected-(U1-Pad4)*%
X134507500Y-100872500D03*
%TO.P,U1,5,GPIO35*%
%TO.N,unconnected-(U1-Pad5)*%
X134507500Y-98332500D03*
%TO.P,U1,6,GPIO32*%
%TO.N,Net-(R1-Pad2)*%
X134507500Y-95792500D03*
%TO.P,U1,7,GPIO33*%
%TO.N,Net-(R2-Pad2)*%
X134507500Y-93252500D03*
%TO.P,U1,8,GPIO25*%
%TO.N,unconnected-(U1-Pad8)*%
X134507500Y-90712500D03*
%TO.P,U1,9,GPIO26*%
%TO.N,Net-(U1-Pad9)*%
X134507500Y-88172500D03*
%TO.P,U1,10,GPIO27*%
%TO.N,Net-(U1-Pad10)*%
X134507500Y-85632500D03*
%TO.P,U1,11,GPIO14*%
%TO.N,Net-(U1-Pad11)*%
X134507500Y-83092500D03*
%TO.P,U1,12,GPIO12*%
%TO.N,Net-(U1-Pad12)*%
X134507500Y-80552500D03*
%TO.P,U1,13,GPIO13*%
%TO.N,unconnected-(U1-Pad13)*%
X134507500Y-78012500D03*
%TO.P,U1,14,GND*%
%TO.N,GND*%
X134507500Y-75472500D03*
%TO.P,U1,15,VIN*%
%TO.N,+5V*%
X134507500Y-72932500D03*
%TO.P,U1,16,3.3V*%
%TO.N,Net-(U1-Pad16)*%
X109107500Y-72932500D03*
%TO.P,U1,17,GND*%
%TO.N,GND*%
X109107500Y-75472500D03*
%TO.P,U1,18,GPIO15*%
%TO.N,unconnected-(U1-Pad18)*%
X109107500Y-78012500D03*
%TO.P,U1,19,GPIO2*%
%TO.N,unconnected-(U1-Pad19)*%
X109107500Y-80552500D03*
%TO.P,U1,20,GPIO4*%
%TO.N,unconnected-(U1-Pad20)*%
X109107500Y-83092500D03*
%TO.P,U1,21,RX2*%
%TO.N,unconnected-(U1-Pad21)*%
X109107500Y-85632500D03*
%TO.P,U1,22,TX2*%
%TO.N,unconnected-(U1-Pad22)*%
X109107500Y-88172500D03*
%TO.P,U1,23,GPIO5*%
%TO.N,Net-(U1-Pad23)*%
X109107500Y-90712500D03*
%TO.P,U1,24,D18/SCK*%
%TO.N,Net-(U1-Pad24)*%
X109107500Y-93252500D03*
%TO.P,U1,25,D19/MISO*%
%TO.N,Net-(U1-Pad25)*%
X109107500Y-95792500D03*
%TO.P,U1,26,D21/SDA*%
%TO.N,Net-(U1-Pad26)*%
X109107500Y-98332500D03*
%TO.P,U1,27,RX0*%
%TO.N,unconnected-(U1-Pad27)*%
X109107500Y-100872500D03*
%TO.P,U1,28,TX0*%
%TO.N,unconnected-(U1-Pad28)*%
X109107500Y-103412500D03*
%TO.P,U1,29,D22/SCL*%
%TO.N,Net-(U1-Pad29)*%
X109107500Y-105952500D03*
D14*
%TO.P,U1,30,D23/MOSI*%
%TO.N,unconnected-(U1-Pad30)*%
X109107500Y-108492500D03*
%TD*%
D10*
%TO.P,R1,1*%
%TO.N,Net-(R1-Pad1)*%
X139700000Y-91440000D03*
D11*
%TO.P,R1,2*%
%TO.N,Net-(R1-Pad2)*%
X139700000Y-101600000D03*
%TD*%
D12*
%TO.P,U3,1,GND*%
%TO.N,GND*%
X127360000Y-143010000D03*
D13*
%TO.P,U3,2,VCC*%
%TO.N,Net-(U1-Pad16)*%
X124820000Y-143010000D03*
%TO.P,U3,3,SCL*%
%TO.N,Net-(U1-Pad29)*%
X122280000Y-143010000D03*
%TO.P,U3,4,SDA*%
%TO.N,Net-(U1-Pad26)*%
X119740000Y-143010000D03*
%TD*%
D15*
%TO.P,J1,1,Pin_1*%
%TO.N,GND*%
X142240000Y-71120000D03*
D16*
%TO.P,J1,2,Pin_2*%
%TO.N,+5V*%
X142240000Y-67620000D03*
%TD*%
D17*
%TO.N,Net-(R1-Pad1)*%
X134620000Y-53340000D03*
%TO.N,Net-(U1-Pad10)*%
X116840000Y-77216000D03*
X129540000Y-43180000D03*
X116840000Y-73914000D03*
%TO.N,Net-(U1-Pad11)*%
X116840000Y-83820000D03*
%TO.N,Net-(U1-Pad24)*%
X121920000Y-35560000D03*
%TD*%
D18*
%TO.N,GND*%
X139700000Y-73660000D02*
X142240000Y-71120000D01*
X109107500Y-75472500D02*
X134507500Y-75472500D01*
X134507500Y-75472500D02*
X136320000Y-73660000D01*
X136320000Y-73660000D02*
X139700000Y-73660000D01*
%TO.N,+5V*%
X135580000Y-67620000D02*
X142240000Y-67620000D01*
X134507500Y-72932500D02*
X134507500Y-68692500D01*
X134507500Y-68692500D02*
X135580000Y-67620000D01*
D19*
%TO.N,Net-(R1-Pad1)*%
X139700000Y-91440000D02*
X144780000Y-91440000D01*
X147320000Y-88900000D02*
X147320000Y-55880000D01*
X147320000Y-55880000D02*
X144780000Y-53340000D01*
X144780000Y-53340000D02*
X134620000Y-53340000D01*
X144780000Y-91440000D02*
X147320000Y-88900000D01*
%TO.N,Net-(U1-Pad10)*%
X115824000Y-82296000D02*
X115824000Y-84582000D01*
X116840000Y-77216000D02*
X116840000Y-81280000D01*
X115824000Y-84582000D02*
X116874500Y-85632500D01*
X121920000Y-45720000D02*
X124460000Y-43180000D01*
X116840000Y-81280000D02*
X115824000Y-82296000D01*
X121920000Y-71120000D02*
X121920000Y-45720000D01*
X124460000Y-43180000D02*
X129540000Y-43180000D01*
X116874500Y-85632500D02*
X134507500Y-85632500D01*
X116840000Y-73914000D02*
X119126000Y-73914000D01*
X119126000Y-73914000D02*
X121920000Y-71120000D01*
%TO.N,Net-(U1-Pad11)*%
X116840000Y-83820000D02*
X117567500Y-83092500D01*
X117567500Y-83092500D02*
X134507500Y-83092500D01*
%TO.N,Net-(U1-Pad24)*%
X121920000Y-38100000D02*
X119380000Y-40640000D01*
X109220000Y-40640000D02*
X106680000Y-43180000D01*
X106680000Y-43180000D02*
X106680000Y-90825000D01*
X121920000Y-35560000D02*
X121920000Y-38100000D01*
X119380000Y-40640000D02*
X109220000Y-40640000D01*
X106680000Y-90825000D02*
X109107500Y-93252500D01*
%TD*%
M02*
