M48
; DRILL file {KiCad (6.0.5-0)} date 2022 May 19, Thursday 17:28:54
; FORMAT={-:-/ absolute / inch / decimal}
; #@! TF.CreationDate,2022-05-19T17:28:54-04:00
; #@! TF.GenerationSoftware,Kicad,Pcbnew,(6.0.5-0)
; #@! TF.FileFunction,Plated,1,2,PTH
FMAT,2
INCH
; #@! TA.AperFunction,Plated,PTH,ViaDrill
T1C0.0157
; #@! TA.AperFunction,Plated,PTH,ComponentDrill
T2C0.0315
; #@! TA.AperFunction,Plated,PTH,ComponentDrill
T3C0.0394
; #@! TA.AperFunction,Plated,PTH,ComponentDrill
T4C0.0472
%
G90
G05
T1
X4.6Y-2.91
X4.6Y-3.04
X4.6Y-3.3
X4.8Y-1.4
X5.1Y-1.7
X5.3Y-2.1
T2
X5.5Y-3.0
X5.5Y-3.4
X5.5Y-3.6
X5.5Y-4.0
T3
X4.2956Y-2.8714
X4.2956Y-2.9714
X4.2956Y-3.0714
X4.2956Y-3.1714
X4.2956Y-3.2714
X4.2956Y-3.3714
X4.2956Y-3.4714
X4.2956Y-3.5714
X4.2956Y-3.6714
X4.2956Y-3.7714
X4.2956Y-3.8714
X4.2956Y-3.9714
X4.2956Y-4.0714
X4.2956Y-4.1714
X4.2956Y-4.2714
X4.7142Y-5.6303
X4.8142Y-5.6303
X4.9142Y-5.6303
X5.0142Y-5.6303
X5.2956Y-2.8714
X5.2956Y-2.9714
X5.2956Y-3.0714
X5.2956Y-3.1714
X5.2956Y-3.2714
X5.2956Y-3.3714
X5.2956Y-3.4714
X5.2956Y-3.5714
X5.2956Y-3.6714
X5.2956Y-3.7714
X5.2956Y-3.8714
X5.2956Y-3.9714
X5.2956Y-4.0714
X5.2956Y-4.1714
X5.2956Y-4.2714
T4
X5.6Y-2.6622
X5.6Y-2.8
T0
M30
