%TF.GenerationSoftware,KiCad,Pcbnew,(6.0.5-0)*%
%TF.CreationDate,2022-05-19T17:28:55-04:00*%
%TF.ProjectId,test_project,74657374-5f70-4726-9f6a-6563742e6b69,rev?*%
%TF.SameCoordinates,Original*%
%TF.FileFunction,Legend,Bot*%
%TF.FilePolarity,Positive*%
%FSLAX46Y46*%
G04 Gerber Fmt 4.6, Leading zero omitted, Abs format (unit mm)*
G04 Created by KiCad (PCBNEW (6.0.5-0)) date 2022-05-19 17:28:55*
%MOMM*%
%LPD*%
G01*
G04 APERTURE LIST*
%ADD10C,0.300000*%
G04 APERTURE END LIST*
D10*
X108811142Y-116182285D02*
X108882571Y-116396571D01*
X108882571Y-116753714D01*
X108811142Y-116896571D01*
X108739714Y-116968000D01*
X108596857Y-117039428D01*
X108454000Y-117039428D01*
X108311142Y-116968000D01*
X108239714Y-116896571D01*
X108168285Y-116753714D01*
X108096857Y-116468000D01*
X108025428Y-116325142D01*
X107954000Y-116253714D01*
X107811142Y-116182285D01*
X107668285Y-116182285D01*
X107525428Y-116253714D01*
X107454000Y-116325142D01*
X107382571Y-116468000D01*
X107382571Y-116825142D01*
X107454000Y-117039428D01*
X107882571Y-117682285D02*
X109382571Y-117682285D01*
X107954000Y-117682285D02*
X107882571Y-117825142D01*
X107882571Y-118110857D01*
X107954000Y-118253714D01*
X108025428Y-118325142D01*
X108168285Y-118396571D01*
X108596857Y-118396571D01*
X108739714Y-118325142D01*
X108811142Y-118253714D01*
X108882571Y-118110857D01*
X108882571Y-117825142D01*
X108811142Y-117682285D01*
X108882571Y-119039428D02*
X107882571Y-119039428D01*
X107382571Y-119039428D02*
X107454000Y-118968000D01*
X107525428Y-119039428D01*
X107454000Y-119110857D01*
X107382571Y-119039428D01*
X107525428Y-119039428D01*
X108811142Y-120396571D02*
X108882571Y-120253714D01*
X108882571Y-119968000D01*
X108811142Y-119825142D01*
X108739714Y-119753714D01*
X108596857Y-119682285D01*
X108168285Y-119682285D01*
X108025428Y-119753714D01*
X107954000Y-119825142D01*
X107882571Y-119968000D01*
X107882571Y-120253714D01*
X107954000Y-120396571D01*
X107882571Y-120896571D02*
X108882571Y-121253714D01*
X107882571Y-121610857D02*
X108882571Y-121253714D01*
X109239714Y-121110857D01*
X109311142Y-121039428D01*
X109382571Y-120896571D01*
X108811142Y-122110857D02*
X108882571Y-122325142D01*
X108882571Y-122682285D01*
X108811142Y-122825142D01*
X108739714Y-122896571D01*
X108596857Y-122968000D01*
X108454000Y-122968000D01*
X108311142Y-122896571D01*
X108239714Y-122825142D01*
X108168285Y-122682285D01*
X108096857Y-122396571D01*
X108025428Y-122253714D01*
X107954000Y-122182285D01*
X107811142Y-122110857D01*
X107668285Y-122110857D01*
X107525428Y-122182285D01*
X107454000Y-122253714D01*
X107382571Y-122396571D01*
X107382571Y-122753714D01*
X107454000Y-122968000D01*
X107882571Y-123610857D02*
X109382571Y-123610857D01*
X107954000Y-123610857D02*
X107882571Y-123753714D01*
X107882571Y-124039428D01*
X107954000Y-124182285D01*
X108025428Y-124253714D01*
X108168285Y-124325142D01*
X108596857Y-124325142D01*
X108739714Y-124253714D01*
X108811142Y-124182285D01*
X108882571Y-124039428D01*
X108882571Y-123753714D01*
X108811142Y-123610857D01*
X108882571Y-125610857D02*
X108096857Y-125610857D01*
X107954000Y-125539428D01*
X107882571Y-125396571D01*
X107882571Y-125110857D01*
X107954000Y-124968000D01*
X108811142Y-125610857D02*
X108882571Y-125468000D01*
X108882571Y-125110857D01*
X108811142Y-124968000D01*
X108668285Y-124896571D01*
X108525428Y-124896571D01*
X108382571Y-124968000D01*
X108311142Y-125110857D01*
X108311142Y-125468000D01*
X108239714Y-125610857D01*
X108811142Y-126968000D02*
X108882571Y-126825142D01*
X108882571Y-126539428D01*
X108811142Y-126396571D01*
X108739714Y-126325142D01*
X108596857Y-126253714D01*
X108168285Y-126253714D01*
X108025428Y-126325142D01*
X107954000Y-126396571D01*
X107882571Y-126539428D01*
X107882571Y-126825142D01*
X107954000Y-126968000D01*
X108811142Y-128182285D02*
X108882571Y-128039428D01*
X108882571Y-127753714D01*
X108811142Y-127610857D01*
X108668285Y-127539428D01*
X108096857Y-127539428D01*
X107954000Y-127610857D01*
X107882571Y-127753714D01*
X107882571Y-128039428D01*
X107954000Y-128182285D01*
X108096857Y-128253714D01*
X108239714Y-128253714D01*
X108382571Y-127539428D01*
X108739714Y-129753714D02*
X108811142Y-129682285D01*
X108882571Y-129468000D01*
X108882571Y-129325142D01*
X108811142Y-129110857D01*
X108668285Y-128968000D01*
X108525428Y-128896571D01*
X108239714Y-128825142D01*
X108025428Y-128825142D01*
X107739714Y-128896571D01*
X107596857Y-128968000D01*
X107454000Y-129110857D01*
X107382571Y-129325142D01*
X107382571Y-129468000D01*
X107454000Y-129682285D01*
X107525428Y-129753714D01*
X108882571Y-130396571D02*
X107882571Y-130396571D01*
X108168285Y-130396571D02*
X108025428Y-130468000D01*
X107954000Y-130539428D01*
X107882571Y-130682285D01*
X107882571Y-130825142D01*
X108882571Y-131968000D02*
X108096857Y-131968000D01*
X107954000Y-131896571D01*
X107882571Y-131753714D01*
X107882571Y-131468000D01*
X107954000Y-131325142D01*
X108811142Y-131968000D02*
X108882571Y-131825142D01*
X108882571Y-131468000D01*
X108811142Y-131325142D01*
X108668285Y-131253714D01*
X108525428Y-131253714D01*
X108382571Y-131325142D01*
X108311142Y-131468000D01*
X108311142Y-131825142D01*
X108239714Y-131968000D01*
X107882571Y-132468000D02*
X107882571Y-133039428D01*
X108882571Y-132682285D02*
X107596857Y-132682285D01*
X107454000Y-132753714D01*
X107382571Y-132896571D01*
X107382571Y-133039428D01*
X107882571Y-133325142D02*
X107882571Y-133896571D01*
X107382571Y-133539428D02*
X108668285Y-133539428D01*
X108811142Y-133610857D01*
X108882571Y-133753714D01*
X108882571Y-133896571D01*
M02*
