%TF.GenerationSoftware,KiCad,Pcbnew,(6.0.5-0)*%
%TF.CreationDate,2022-05-16T13:23:45-04:00*%
%TF.ProjectId,test_project,74657374-5f70-4726-9f6a-6563742e6b69,rev?*%
%TF.SameCoordinates,Original*%
%TF.FileFunction,Soldermask,Bot*%
%TF.FilePolarity,Negative*%
%FSLAX46Y46*%
G04 Gerber Fmt 4.6, Leading zero omitted, Abs format (unit mm)*
G04 Created by KiCad (PCBNEW (6.0.5-0)) date 2022-05-16 13:23:45*
%MOMM*%
%LPD*%
G01*
G04 APERTURE LIST*
%ADD10C,1.600000*%
%ADD11O,1.600000X1.600000*%
%ADD12R,1.700000X1.700000*%
%ADD13O,1.700000X1.700000*%
%ADD14C,1.700000*%
%ADD15R,2.400000X2.400000*%
%ADD16C,2.400000*%
G04 APERTURE END LIST*
D10*
%TO.C,R2*%
X139700000Y-76200000D03*
D11*
X139700000Y-86360000D03*
%TD*%
D12*
%TO.C,U1*%
X134507500Y-108492500D03*
D13*
X134507500Y-105952500D03*
X134507500Y-103412500D03*
X134507500Y-100872500D03*
X134507500Y-98332500D03*
X134507500Y-95792500D03*
X134507500Y-93252500D03*
X134507500Y-90712500D03*
X134507500Y-88172500D03*
X134507500Y-85632500D03*
X134507500Y-83092500D03*
X134507500Y-80552500D03*
X134507500Y-78012500D03*
X134507500Y-75472500D03*
X134507500Y-72932500D03*
X109107500Y-72932500D03*
X109107500Y-75472500D03*
X109107500Y-78012500D03*
X109107500Y-80552500D03*
X109107500Y-83092500D03*
X109107500Y-85632500D03*
X109107500Y-88172500D03*
X109107500Y-90712500D03*
X109107500Y-93252500D03*
X109107500Y-95792500D03*
X109107500Y-98332500D03*
X109107500Y-100872500D03*
X109107500Y-103412500D03*
X109107500Y-105952500D03*
D14*
X109107500Y-108492500D03*
%TD*%
D10*
%TO.C,R1*%
X139700000Y-91440000D03*
D11*
X139700000Y-101600000D03*
%TD*%
D12*
%TO.C,U3*%
X127360000Y-143010000D03*
D13*
X124820000Y-143010000D03*
X122280000Y-143010000D03*
X119740000Y-143010000D03*
%TD*%
D15*
%TO.C,J1*%
X142240000Y-71120000D03*
D16*
X142240000Y-67620000D03*
%TD*%
M02*
