%TF.GenerationSoftware,KiCad,Pcbnew,(6.0.5-0)*%
%TF.CreationDate,2022-05-16T13:23:45-04:00*%
%TF.ProjectId,test_project,74657374-5f70-4726-9f6a-6563742e6b69,rev?*%
%TF.SameCoordinates,Original*%
%TF.FileFunction,Legend,Top*%
%TF.FilePolarity,Positive*%
%FSLAX46Y46*%
G04 Gerber Fmt 4.6, Leading zero omitted, Abs format (unit mm)*
G04 Created by KiCad (PCBNEW (6.0.5-0)) date 2022-05-16 13:23:45*
%MOMM*%
%LPD*%
G01*
G04 APERTURE LIST*
%ADD10C,0.150000*%
%ADD11C,0.120000*%
%ADD12C,0.050000*%
G04 APERTURE END LIST*
D10*
%TO.C,U2*%
X147867619Y-34798095D02*
X147058095Y-34798095D01*
X146962857Y-34845714D01*
X146915238Y-34893333D01*
X146867619Y-34988571D01*
X146867619Y-35179047D01*
X146915238Y-35274285D01*
X146962857Y-35321904D01*
X147058095Y-35369523D01*
X147867619Y-35369523D01*
X147772380Y-35798095D02*
X147820000Y-35845714D01*
X147867619Y-35940952D01*
X147867619Y-36179047D01*
X147820000Y-36274285D01*
X147772380Y-36321904D01*
X147677142Y-36369523D01*
X147581904Y-36369523D01*
X147439047Y-36321904D01*
X146867619Y-35750476D01*
X146867619Y-36369523D01*
%TO.C,R2*%
X142522380Y-81446666D02*
X142046190Y-81780000D01*
X142522380Y-82018095D02*
X141522380Y-82018095D01*
X141522380Y-81637142D01*
X141570000Y-81541904D01*
X141617619Y-81494285D01*
X141712857Y-81446666D01*
X141855714Y-81446666D01*
X141950952Y-81494285D01*
X141998571Y-81541904D01*
X142046190Y-81637142D01*
X142046190Y-82018095D01*
X141617619Y-81065714D02*
X141570000Y-81018095D01*
X141522380Y-80922857D01*
X141522380Y-80684761D01*
X141570000Y-80589523D01*
X141617619Y-80541904D01*
X141712857Y-80494285D01*
X141808095Y-80494285D01*
X141950952Y-80541904D01*
X142522380Y-81113333D01*
X142522380Y-80494285D01*
%TO.C,U1*%
X136398095Y-113964880D02*
X136398095Y-114774404D01*
X136445714Y-114869642D01*
X136493333Y-114917261D01*
X136588571Y-114964880D01*
X136779047Y-114964880D01*
X136874285Y-114917261D01*
X136921904Y-114869642D01*
X136969523Y-114774404D01*
X136969523Y-113964880D01*
X137969523Y-114964880D02*
X137398095Y-114964880D01*
X137683809Y-114964880D02*
X137683809Y-113964880D01*
X137588571Y-114107738D01*
X137493333Y-114202976D01*
X137398095Y-114250595D01*
%TO.C,R1*%
X142522380Y-96686666D02*
X142046190Y-97020000D01*
X142522380Y-97258095D02*
X141522380Y-97258095D01*
X141522380Y-96877142D01*
X141570000Y-96781904D01*
X141617619Y-96734285D01*
X141712857Y-96686666D01*
X141855714Y-96686666D01*
X141950952Y-96734285D01*
X141998571Y-96781904D01*
X142046190Y-96877142D01*
X142046190Y-97258095D01*
X142522380Y-95734285D02*
X142522380Y-96305714D01*
X142522380Y-96020000D02*
X141522380Y-96020000D01*
X141665238Y-96115238D01*
X141760476Y-96210476D01*
X141808095Y-96305714D01*
%TO.C,U3*%
X138938095Y-144232380D02*
X138938095Y-145041904D01*
X138985714Y-145137142D01*
X139033333Y-145184761D01*
X139128571Y-145232380D01*
X139319047Y-145232380D01*
X139414285Y-145184761D01*
X139461904Y-145137142D01*
X139509523Y-145041904D01*
X139509523Y-144232380D01*
X139890476Y-144232380D02*
X140509523Y-144232380D01*
X140176190Y-144613333D01*
X140319047Y-144613333D01*
X140414285Y-144660952D01*
X140461904Y-144708571D01*
X140509523Y-144803809D01*
X140509523Y-145041904D01*
X140461904Y-145137142D01*
X140414285Y-145184761D01*
X140319047Y-145232380D01*
X140033333Y-145232380D01*
X139938095Y-145184761D01*
X139890476Y-145137142D01*
%TO.C,J1*%
X137232380Y-69703333D02*
X137946666Y-69703333D01*
X138089523Y-69750952D01*
X138184761Y-69846190D01*
X138232380Y-69989047D01*
X138232380Y-70084285D01*
X138232380Y-68703333D02*
X138232380Y-69274761D01*
X138232380Y-68989047D02*
X137232380Y-68989047D01*
X137375238Y-69084285D01*
X137470476Y-69179523D01*
X137518095Y-69274761D01*
D11*
%TO.C,U2*%
X146155000Y-33720000D02*
X146155000Y-57720000D01*
X107655000Y-57720000D02*
X109595000Y-57720000D01*
X146155000Y-57720000D02*
X145155000Y-57720000D01*
X146155000Y-33720000D02*
X145155000Y-33720000D01*
X124155000Y-57720000D02*
X118215000Y-57720000D01*
X107655000Y-33720000D02*
X107655000Y-57720000D01*
X107655000Y-33720000D02*
X109595000Y-33720000D01*
X124155000Y-33720000D02*
X118155000Y-33720000D01*
%TO.C,R2*%
X138330000Y-78010000D02*
X138330000Y-84550000D01*
X139700000Y-77240000D02*
X139700000Y-78010000D01*
X141070000Y-78010000D02*
X138330000Y-78010000D01*
X141070000Y-84550000D02*
X141070000Y-78010000D01*
X139700000Y-85320000D02*
X139700000Y-84550000D01*
X138330000Y-84550000D02*
X141070000Y-84550000D01*
%TO.C,U1*%
X135837500Y-71602500D02*
X133177500Y-71602500D01*
X135837500Y-109822500D02*
X134507500Y-109822500D01*
X107777500Y-107222500D02*
X107777500Y-71602500D01*
X133177500Y-107222500D02*
X133177500Y-71602500D01*
X110437500Y-108492500D02*
X110437500Y-109822500D01*
X110437500Y-109822500D02*
X109107500Y-109822500D01*
X110437500Y-107222500D02*
X110437500Y-71602500D01*
X110437500Y-107222500D02*
X107777500Y-107222500D01*
X110437500Y-71602500D02*
X107777500Y-71602500D01*
X135837500Y-108492500D02*
X135837500Y-109822500D01*
X135837500Y-107222500D02*
X135837500Y-71602500D01*
X135837500Y-107222500D02*
X133177500Y-107222500D01*
D12*
X136057500Y-114512500D02*
X107557500Y-114512500D01*
X107557500Y-114512500D02*
X107557500Y-63062500D01*
X107557500Y-63062500D02*
X136057500Y-63062500D01*
X136057500Y-63062500D02*
X136057500Y-114512500D01*
D11*
%TO.C,R1*%
X138330000Y-93250000D02*
X138330000Y-99790000D01*
X141070000Y-93250000D02*
X138330000Y-93250000D01*
X138330000Y-99790000D02*
X141070000Y-99790000D01*
X141070000Y-99790000D02*
X141070000Y-93250000D01*
X139700000Y-92480000D02*
X139700000Y-93250000D01*
X139700000Y-100560000D02*
X139700000Y-99790000D01*
%TO.C,U3*%
X137160000Y-144780000D02*
X109860000Y-144780000D01*
X109860000Y-144780000D02*
X109860000Y-116980000D01*
X109860000Y-116980000D02*
X137160000Y-116980000D01*
X137160000Y-116980000D02*
X137160000Y-144780000D01*
%TO.C,J1*%
X144340000Y-73280000D02*
X144340000Y-65460000D01*
X138780000Y-73280000D02*
X145900000Y-73280000D01*
X144400000Y-73520000D02*
X146140000Y-73520000D01*
X138780000Y-65460000D02*
X145900000Y-65460000D01*
X138780000Y-73280000D02*
X138780000Y-65460000D01*
X145900000Y-73280000D02*
X145900000Y-65460000D01*
X146140000Y-73520000D02*
X146140000Y-72020000D01*
X141632000Y-72552000D02*
G75*
G03*
X142847742Y-72552109I608000J1432000D01*
G01*
X143795000Y-71120000D02*
G75*
G03*
X143671385Y-70512413I-1555000J0D01*
G01*
X142848000Y-69688000D02*
G75*
G03*
X141632258Y-69687891I-607999J-1432003D01*
G01*
X140808000Y-70512000D02*
G75*
G03*
X140807891Y-71727742I1432000J-608000D01*
G01*
X143672000Y-71728000D02*
G75*
G03*
X143795493Y-71092989I-1431988J607998D01*
G01*
X143795000Y-67620000D02*
G75*
G03*
X143795000Y-67620000I-1555000J0D01*
G01*
%TD*%
M02*
